<svg id="Laag_1" data-name="Laag 1" xmlns="http://www.w3.org/2000/svg" viewBox="0 0 191.39 27.51"><title>Naamloos-1</title><path d="M62,34.26l-3.42,7.61L50.36,60.21h5.3l2.22-4.89H71.45l2.19,4.89H79L67.34,34.26Zm6.26,16.5H59.85l2.58-5.93,2.24-5.12,4.82,11Z" transform="translate(-50.36 -33.37)"/><path d="M98.52,46.79a5.29,5.29,0,0,0,3.37-5c0-5.23-3.82-7.52-8.93-7.52H80.65v26H93c5.37,0,9.71-1.85,9.71-7.64C102.67,50.94,101.56,47.71,98.52,46.79Zm-13-8.09H93c3.11,0,4.08,2,4.08,3.19,0,1.49-1,2.78-4.08,2.78H85.47ZM93,55.65H85.47V49H93c2,0,4.85,1.22,4.85,3.55S95,55.65,93,55.65Z" transform="translate(-50.36 -33.37)"/><path d="M118.72,33.74c-9,0-13.34,6.86-13.34,13.68S109.6,60.8,118.72,60.8,132,54.09,132,47.38,127.66,33.74,118.72,33.74Zm0,22.58c-6.11,0-8.41-4.56-8.52-8.83s2.41-9.3,8.52-9.3,8.57,4.89,8.5,9.27S124.84,56.32,118.72,56.32Z" transform="translate(-50.36 -33.37)"/><path d="M153.54,49.16c0,4.45-2.3,7.16-6.34,7.16s-6.71-2.49-6.71-7.16V34.29h-4.86V49.16c0,7.82,5.3,11.61,11.53,11.61,6.53,0,11.24-3.93,11.24-11.61V34.29h-4.86Z" transform="translate(-50.36 -33.37)"/><path d="M161.66,38.7h8.23V60.21h4.89V38.7H183V34.26H161.66Z" transform="translate(-50.36 -33.37)"/><path d="M211.38,49.16c0,4.45-2.3,7.16-6.34,7.16s-6.72-2.49-6.72-7.16V34.29h-4.85V49.16c0,7.82,5.3,11.61,11.53,11.61,6.52,0,11.23-3.93,11.23-11.61V34.29h-4.85Z" transform="translate(-50.36 -33.37)"/><path d="M231.28,44.34c-3.11-.37-5.78-1-5.78-3.26,0-1.93,1.74-3.45,5.38-3.45,2.82,0,5.26,1.41,6.15,2.89l3.9-2c-2-4-6.16-5.15-10.2-5.15-4.78,0-10,2.22-10,7.56,0,5.82,4.89,7.23,10.2,7.86,3.44.37,6,1.37,6,3.82,0,2.82-2.89,3.89-6,3.89s-6.15-1.26-7.3-4.11l-4.08,2.11c1.93,4.75,6,6.38,11.31,6.38,5.78,0,10.9-2.49,10.9-8.27C241.74,46.42,236.7,45,231.28,44.34Z" transform="translate(-50.36 -33.37)"/></svg>